<?xml version="1.0" encoding="UTF-8"?>
<svg id="Layer_1" xmlns="http://www.w3.org/2000/svg" version="1.1" viewBox="0 0 258.8 97.9">
  <!-- Generator: Adobe Illustrator 30.1.0, SVG Export Plug-In . SVG Version: 2.1.1 Build 136)  -->
  <defs>
    <style>
      .st0 {
        fill: #050505;
      }

      .st1 {
        fill: #38d2a6;
      }

      .st2 {
        fill: #fff;
      }
    </style>
  </defs>
  <g>
    <path class="st0" d="M108.4,41.7l-4,1.7c-.2,0-.4,0-.4-.2-.2-4-3.2-6.9-8.2-6.9s-7.5,2-7.5,5.4c0,8.6,20.7.6,20.7,14.2s-5.5,10.2-12.9,10.2-12.7-3.9-13.6-10.5c0-.1,0-.2.1-.3l4.2-2c.2,0,.4,0,.4.2.2,5,3.4,8.3,8.9,8.3s7.9-2.2,7.9-5.6c0-9.2-20.7-.8-20.7-14.1s5.8-10,12.5-10,12.2,4.3,12.8,9.5c0,0,0,.2-.1.3Z"/>
    <path class="st0" d="M134.5,54.8h-17.8c-.2,0-.3.1-.3.3.6,4.6,3.6,6.8,7.3,6.8s5.7-1.3,7.1-4.2c0-.2.3-.2.4,0l3.1,2.7c0,0,.1.2,0,.3-2.3,3.7-6.4,5.3-10.7,5.3-7.5,0-12.3-5.2-12.3-12.7s5-12.8,12-12.8,11.5,5,11.5,12.4,0,1.1,0,1.7c0,.1-.1.2-.3.2ZM116.8,51.2h12.6c.1,0,.3-.1.3-.3-.1-3.9-2.5-6.3-6.4-6.3s-6,2.1-6.7,6.3c0,.2.1.3.3.3Z"/>
    <path class="st0" d="M172.8,49.8v15.2c0,.1-.1.3-.3.3h-4.3c-.1,0-.3-.1-.3-.3v-14.3c0-4-1.8-5.8-4.9-5.8s-5.5,2.5-5.5,6.9v13.3c0,.1-.1.3-.3.3h-4.3c-.1,0-.3-.1-.3-.3v-14.3c0-4-1.8-5.9-4.9-5.9s-5.5,2.9-5.6,7.3v12.8c0,.1-.1.3-.3.3h-4.3c-.1,0-.3-.1-.3-.3v-23.5c0-.1.1-.3.3-.3h4.2c.1,0,.3.1.3.3v2.1c0,.3.3.4.5.1,1.6-2.4,4-3.3,6.5-3.3s5.6,1.5,7,3.9c0,.2.3.2.4,0,1.4-2.3,4.1-3.9,7.6-3.9,5.2,0,8.5,3.2,8.5,9.3Z"/>
    <path class="st0" d="M201.5,53.3c0,7.2-4.9,12.7-12.2,12.7s-6.3-1.3-8.2-3.4c-.2-.2-.5,0-.5.2v2.3c0,.1-.1.3-.3.3h-4.3c-.1,0-.3-.1-.3-.3v-32.8c0-.1.1-.3.3-.3h4.3c.1,0,.3.1.3.3v11.6c0,.2.3.4.5.2,1.9-2.1,4.7-3.5,8.3-3.5,7.3,0,12.1,5.6,12.1,12.8ZM196.5,53.3c0-4.8-3.1-8.5-8-8.5s-8,3.6-8,8.5,3.3,8.3,8,8.3,8-3.6,8-8.3Z"/>
    <path class="st0" d="M208.9,32.2v32.8c0,.1-.1.3-.3.3h-4.3c-.1,0-.3-.1-.3-.3v-32.8c0-.1.1-.3.3-.3h4.3c.1,0,.3.1.3.3Z"/>
    <path class="st0" d="M234.7,54.8h-17.8c-.2,0-.3.1-.3.3.6,4.6,3.6,6.8,7.3,6.8s5.7-1.3,7.1-4.2c0-.2.3-.2.4,0l3.1,2.7c0,0,.1.2,0,.3-2.3,3.7-6.4,5.3-10.7,5.3-7.5,0-12.3-5.2-12.3-12.7s5-12.8,12-12.8,11.5,5,11.5,12.4,0,1.1,0,1.7c0,.1-.1.2-.3.2ZM216.9,51.2h12.6c.1,0,.3-.1.3-.3-.1-3.9-2.5-6.3-6.4-6.3s-6,2.1-6.7,6.3c0,.2.1.3.3.3Z"/>
  </g>
  <g>
    <path class="st1" d="M23.8,38v22c0,7.1,5.7,12.8,12.8,12.8h22c7.1,0,12.8-5.7,12.8-12.8v-22c0-7.1-5.7-12.8-12.8-12.8h-22c-7.1,0-12.8,5.7-12.8,12.8Z"/>
    <path class="st2" d="M46.8,66h1.7c.8,0,1.5-.7,1.5-1.5v-1.7c0-.1,0-.2,0-.3l-.8-5c0-.5-.6-.9-1.1-.9h-.7c-.6,0-1,.4-1.1.9l-.8,5c0,0,0,.2,0,.3v1.7c0,.8.7,1.5,1.5,1.5Z"/>
    <path class="st2" d="M42.6,56.1c.3-.5.3-1.1,0-1.6l-.5-.5c-.4-.4-1-.4-1.6,0l-4.9,3.2c-.4.3-.7.7-.7,1.3v1.7c0,.8.7,1.5,1.5,1.5h1.7c.5,0,1-.3,1.3-.7l3.2-4.9Z"/>
    <path class="st2" d="M48.5,31.9h-1.7c-.8,0-1.5.7-1.5,1.5v1.7c0,.1,0,.2,0,.3l.8,5c0,.5.6.9,1.1.9h.7c.6,0,1-.4,1.1-.9l.8-5c0,0,0-.2,0-.3v-1.7c0-.9-.7-1.5-1.5-1.5Z"/>
    <path class="st2" d="M52.6,41.8c-.3.5-.3,1.1,0,1.6l.5.5c.4.4,1,.4,1.6,0l4.9-3.2c.4-.3.7-.7.7-1.3v-1.7c0-.8-.7-1.5-1.5-1.5h-1.7c-.5,0-1,.3-1.3.7,0,0-3.2,4.9-3.2,4.9Z"/>
    <path class="st2" d="M59.7,57.2s-11.4-9.3-11.7-9.7c-1.8-2.2-8.7-10.7-8.7-10.7-.3-.3-.7-.6-1.2-.6h-1.7c-.8,0-1.5.7-1.5,1.5v1.7c0,.5.2.9.6,1.2,0,0,11.4,9.3,11.7,9.7,1.8,2.2,8.7,10.7,8.7,10.7.3.3.7.6,1.2.6h1.7c.8,0,1.5-.7,1.5-1.5v-1.7c0-.5-.2-.9-.6-1.2Z"/>
  </g>
</svg>
